# xmcd
#
# Track frame offsets:
#	150
#	13329
#	24339
#	36272
#	56590
#	67892
#	82033
#	97851
#	111946
#	123826
#	141571
#	157082
#	175282
#	191617
#	206641
#	220781
#	234468
#	249539
#	264275
#	277236
#	295014
#	313401
#	324577
#
# Disc length: 4486
#
# Revision: 1
# Processed by: cddbd v1.5.1PL0 Copyright (c) Steve Scherf et al.
# Submitted via: CDex 1.40Beta6
# Normalized: r0:DSETVAR1
#
DISCID=5b118417
DTITLE=Various Artist - It Must Be Love
DYEAR=2001
DGENRE=Country
TTITLE0=Alan Jackson - It Must Be Love
TTITLE1=Alan Jackson - Www.Memory
TTITLE2=Alan Jackson - Little Bitty
TTITLE3=Alan Jackson - Little Man
TTITLE4=Alan Jackson - Meat And Potato Man
TTITLE5=Alan Jackson - Pop A Top
TTITLE6=Alan Jackson - When Somebody Loves You
TTITLE7=Alan Jackson - Everything I Love Is Killing Me
TTITLE8=Alan Jackson - Buicks To The Moon
TTITLE9=Alan Jackson - There Goes
TTITLE10=Alan Jackson - House With No Curtains
TTITLE11=Alan Jackson - Who's Cheatin' Who
TTITLE12=Rascal Flatts - Praying For Daylight
TTITLE13=Brooks and Dunn - Nothin' 'bout You
TTITLE14=Shania Twain - The Way You Love Me
TTITLE15=John Anderson - Money In The Bank
TTITLE16=Montgomery Gentry - Lonely And Gone
TTITLE17=Montgomery Gentry - I've Loved More Than I Hurt
TTITLE18=Sawyer Brown - Six Days On The Road
TTITLE19=Sawyer Brown - This Night Won't Last Forever
TTITLE20=John Berry - Standing On The Edge Of Goodbye
TTITLE21=Young Rascals - Groovin'
TTITLE22=Devo - Whip It
EXTD=
EXTT0=
EXTT1=
EXTT2=
EXTT3=
EXTT4=
EXTT5=
EXTT6=
EXTT7=
EXTT8=
EXTT9=
EXTT10=
EXTT11=
EXTT12=
EXTT13=
EXTT14=
EXTT15=
EXTT16=
EXTT17=
EXTT18=
EXTT19=
EXTT20=
EXTT21=
EXTT22=
PLAYORDER=
